HIERARCHY
ROOT Bip001_Pelvis
{
  OFFSET 7.937 94.8971 -8.5489
  CHANNELS 6 Xposition Yposition Zposition Zrotation Xrotation Yrotation
  JOINT Bip001_Spine
  {
    OFFSET 1.44608e-005 10.4157 -0.0118244
    CHANNELS 3 Zrotation Xrotation Yrotation
    JOINT Bip001_L_Thigh
    {
      OFFSET 11.2582 -10.4157 0.0118432
      CHANNELS 3 Zrotation Xrotation Yrotation
      JOINT Bip001_L_Calf
      {
        OFFSET -0.720717 -44.8687 0.366937
        CHANNELS 3 Zrotation Xrotation Yrotation
        JOINT Bip001_L_Foot
        {
          OFFSET -0.664439 -41.3745 -3.62995
          CHANNELS 3 Zrotation Xrotation Yrotation
          JOINT Bip001_L_Toe0
          {
            OFFSET 0.0541047 -10.4146 13.4033
            CHANNELS 3 Zrotation Xrotation Yrotation
            End Site
            {
              OFFSET -1.04503e-005 0 7.70137
            }
          }
        }
      }
    }
    JOINT Bip001_R_Thigh
    {
      OFFSET -11.2582 -10.4156 0.0118122
      CHANNELS 3 Zrotation Xrotation Yrotation
      JOINT Bip001_R_Calf
      {
        OFFSET 0.72059 -44.8687 0.36676
        CHANNELS 3 Zrotation Xrotation Yrotation
        JOINT Bip001_R_Foot
        {
          OFFSET 0.664321 -41.3745 -3.62979
          CHANNELS 3 Zrotation Xrotation Yrotation
          JOINT Bip001_R_Toe0
          {
            OFFSET -0.05417 -10.4146 13.4033
            CHANNELS 3 Zrotation Xrotation Yrotation
            End Site
            {
              OFFSET -1.04873e-005 0 7.70137
            }
          }
        }
      }
    }
    JOINT Bip001_Spine1
    {
      OFFSET 1.90638e-005 14.8539 1.10727
      CHANNELS 3 Zrotation Xrotation Yrotation
      JOINT Bip001_Spine2
      {
        OFFSET 2.28934e-005 14.7848 -1.7233
        CHANNELS 3 Zrotation Xrotation Yrotation
        JOINT Bip001_Neck
        {
          OFFSET 2.24514e-005 15.6905 -0.498826
          CHANNELS 3 Zrotation Xrotation Yrotation
          JOINT Bip001_L_Clavicle
          {
            OFFSET 6.17691 -0.000591152 0.00852867
            CHANNELS 3 Zrotation Xrotation Yrotation
            JOINT Bip001_L_UpperArm
            {
              OFFSET 11.773 -0.0611878 0.00197697
              CHANNELS 3 Zrotation Xrotation Yrotation
              JOINT Bip001_L_Forearm
              {
                OFFSET 26.4515 0.0817568 -2.19579
                CHANNELS 3 Zrotation Xrotation Yrotation
                JOINT Bip001_L_Hand
                {
                  OFFSET 32.8677 0.156744 1.67112
                  CHANNELS 3 Zrotation Xrotation Yrotation
                  JOINT Bip001_L_Finger0
                  {
                    OFFSET 6.16268 -2.25226 6.01674
                    CHANNELS 3 Zrotation Xrotation Yrotation
                    End Site
                    {
                      OFFSET 4.30499 -1.46662 0.618148
                    }
                  }
                  JOINT Bip001_L_Finger1
                  {
                    OFFSET 11.2957 -0.718374 -0.201963
                    CHANNELS 3 Zrotation Xrotation Yrotation
                    End Site
                    {
                      OFFSET 6.31952 -0.405163 -0.0802303
                    }
                  }
                }
              }
            }
          }
          JOINT Bip001_R_Clavicle
          {
            OFFSET -6.17691 -0.000574027 0.00851165
            CHANNELS 3 Zrotation Xrotation Yrotation
            JOINT Bip001_R_UpperArm
            {
              OFFSET -11.773 -0.0611516 0.00194365
              CHANNELS 3 Zrotation Xrotation Yrotation
              JOINT Bip001_R_Forearm
              {
                OFFSET -26.4514 0.0822334 -2.19736
                CHANNELS 3 Zrotation Xrotation Yrotation
                JOINT Bip001_R_Hand
                {
                  OFFSET -32.8677 0.156817 1.67144
                  CHANNELS 3 Zrotation Xrotation Yrotation
                  JOINT Bip001_R_Finger0
                  {
                    OFFSET -6.1627 -2.25224 6.0167
                    CHANNELS 3 Zrotation Xrotation Yrotation
                    End Site
                    {
                      OFFSET -4.30499 -1.46662 0.618134
                    }
                  }
                  JOINT Bip001_R_Finger1
                  {
                    OFFSET -11.2958 -0.718344 -0.201994
                    CHANNELS 3 Zrotation Xrotation Yrotation
                    End Site
                    {
                      OFFSET -6.31952 -0.405146 -0.0802475
                    }
                  }
                }
              }
            }
          }
          JOINT Bip001_Head
          {
            OFFSET 1.11782e-005 11.4912 2.09908
            CHANNELS 3 Zrotation Xrotation Yrotation
            End Site
            {
              OFFSET 2.95144e-005 21.2823 -2.83069e-005
            }
          }
        }
      }
    }
  }
}
MOTION
Frames:	13
Frame Time:	0.04
9.17213 95.0516 -9.70935 -2.16331 2.74798 20.1077 -1.40134 -0.231853 2.38128 4.02514 -17.6719 4.33797 1.5898 19.534 -10.7878 -1.21122 -4.62854 -6.18478 0.71174 -10.2342 -0.737785 -6.38116 -4.25513 -7.70774 0.859074 14.0488 -4.13831 0.211339 -8.86043 -16.1378 1.45439 -11.6593 -1.21029 -2.48532 -0.514387 4.78762 -2.48532 -0.514387 4.78762 0.256811 -5.28562 -8.03876 -26.4914 7.7039 -6.98542 -58.0518 28.2226 27.1713 25.3362 10.0224 -39.0054 -8.80954 0.301048 -2.49984 0 1.27222e-014 -0 1.59028e-015 9.54167e-015 -0 -0.613315 6.77925 21.2484 21.8613 -34.0783 46.6426 -32.7771 3.00566 50.5572 -24.8822 3.96326 -12.3623 -4.77083e-015 3.18055e-015 7.95139e-016 -4.77083e-015 0 7.95139e-016 -4.64418 -0.927999 -6.72671 
9.41327 95.256 -9.74604 -1.67894 2.57566 20.2629 -1.28514 -0.19859 2.2708 3.69351 -16.5087 3.7496 0.509705 17.8914 -9.46291 -0.74641 -3.67694 -6.53664 0.601697 -10.2412 -0.879678 -6.92187 -3.11659 -9.2799 0.393057 12.4956 -4.01809 1.04501 -8.12102 -14.8597 0.907462 -11.6359 -0.882092 -2.37452 -0.444917 4.55738 -2.37453 -0.445001 4.5574 0.2742 -4.63459 -8.34461 -26.0852 6.90113 -6.75162 -60.1794 28.9682 29.163 23.7864 9.55774 -37.4259 -8.70038 0.207349 -2.28141 1.59028e-015 9.54166e-015 1.59028e-015 7.95139e-016 6.36111e-015 -0 -1.50518 5.728 20.2608 26.3955 -34.998 50.5167 -33.6485 5.0695 53.4909 -22.3576 7.52051 -13.4902 6.36111e-015 -3.18055e-015 -7.95139e-016 6.36111e-015 0 -7.95139e-016 -4.78163 -0.424765 -6.98277 
9.70566 95.3682 -9.87255 -1.10754 2.25733 19.4217 -1.15282 -0.151207 2.10142 3.45947 -15.3339 4.01644 -0.349415 16.7679 -8.52949 -0.286351 -3.12383 -6.44775 0.577859 -10.265 -0.947934 -7.68194 -2.58067 -9.53417 0.23331 11.8672 -4.19498 1.74747 -7.64163 -13.566 0.48859 -11.6174 -0.586934 -2.24395 -0.34359 4.2048 -2.24395 -0.343573 4.2048 -0.300986 -4.04875 -8.22537 -25.3477 6.15828 -5.94296 -62.2464 30.362 30.7004 23.1237 9.57652 -35.3851 -9.22157 0.0827517 -1.89258 -3.97569e-016 -6.36111e-015 1.59028e-015 2.64834e-031 -9.54167e-015 1.59028e-015 -0.743235 5.32953 20.8297 26.1352 -34.5969 50.1141 -35.3526 3.30411 57.413 -20.7996 6.79562 -14.349 -4.77083e-015 3.18055e-015 -1.59028e-015 -3.18055e-015 6.36111e-015 -1.59028e-015 -4.40138 0.100764 -7.08267 
9.97252 95.3675 -10.0798 -0.828532 1.98583 17.9306 -0.973256 -0.125374 2.01252 3.2176 -14.7967 4.91582 -0.323563 16.7153 -7.66022 -0.194144 -3.21929 -6.62205 0.567814 -10.2605 -0.963656 -8.30037 -2.76033 -9.78076 -0.00685559 11.9755 -3.20841 2.23885 -7.41019 -12.6373 0.262734 -11.5727 -0.556976 -1.95733 -0.285019 4.01929 -1.95733 -0.28502 4.01928 -1.08034 -3.00412 -7.94568 -24.5654 5.2288 -5.8816 -63.223 31.0945 30.9526 22.8746 11.7395 -32.9462 -10.4079 0.0589965 -1.81255 -1.98785e-016 -1.27222e-014 -0 -3.97569e-016 -9.54167e-015 1.98785e-016 0.464018 4.51102 20.8429 28.2813 -34.7586 51.8312 -34.257 2.13777 60.4405 -23.7492 4.48148 -10.8756 -1.59028e-015 3.18055e-015 1.59028e-015 -1.59028e-015 -3.18056e-015 7.95139e-016 -3.77936 -0.372897 -7.19974 
10.2135 95.3347 -10.3576 -0.561851 1.73664 16.2518 -0.854961 -0.0764685 1.87958 3.01392 -14.4491 4.92249 -0.518022 16.8402 -6.41498 -0.10009 -3.38552 -6.06452 0.571006 -10.2621 -0.928237 -8.95035 -3.30149 -8.9285 0.121446 12.4718 -2.72365 2.55748 -7.39142 -12.1268 0.0253252 -11.5187 -0.541776 -1.72054 -0.181163 3.75821 -1.72055 -0.181162 3.7582 -1.35444 -2.88294 -7.55639 -24.4337 5.10005 -5.56194 -63.468 31.7285 30.3002 22.3581 13.5235 -30.6525 -12.3218 -0.129013 -1.63996 -7.95139e-016 3.18055e-015 5.96354e-016 -9.93923e-016 -3.18056e-015 5.96354e-016 1.29997 4.59601 20.6628 32.8259 -36.3285 54.3743 -35.1793 3.2034 65.7437 -26.2165 3.52532 -7.83476 -1.59028e-015 0 -0 -7.95139e-016 6.36111e-015 -7.95139e-016 -3.96098 -0.0406888 -6.84732 
10.3547 95.2984 -10.6292 -0.447279 1.32831 14.4522 -0.767233 -0.0465231 1.76313 3.04573 -14.0727 4.79675 -0.659593 17.1237 -5.60696 -0.0808427 -3.68684 -4.98307 0.582477 -10.2098 -0.759461 -9.22543 -3.78119 -8.10675 0.0823164 12.9039 -2.38599 2.86964 -7.25473 -11.3867 -0.155149 -11.5043 -0.446947 -1.5301 -0.11672 3.5313 -1.53115 -0.116716 3.53116 -1.3248 -2.47099 -7.16591 -24.401 4.87868 -6.06967 -64.0168 32.4493 29.9127 21.213 13.3273 -28.4669 -13.8937 -0.407347 -0.872734 7.95139e-016 3.18055e-015 -7.95139e-016 3.97569e-016 0 -3.97569e-016 3.62057 4.74415 19.5873 40.2404 -38.0448 56.496 -36.9359 4.90233 75.9776 -27.478 4.20335 -5.1672 -1.19271e-015 0 1.98785e-016 -1.19271e-015 3.18056e-015 1.98785e-016 -3.77163 -0.11408 -6.51474 
10.5108 95.3023 -10.7519 -0.140677 0.712301 12.8696 -0.687706 0.04197 1.56148 2.80051 -13.236 4.31526 -0.660815 16.9546 -4.56955 -0.220499 -3.81348 -4.01488 0.60436 -10.1725 -0.551338 -9.66429 -3.84054 -7.82576 0.0892096 13.1523 -1.66672 3.11771 -7.12211 -10.66 -0.335944 -11.5123 -0.282659 -1.4001 0.0648004 3.12648 -1.40011 0.0647995 3.12648 -1.22433 -2.37584 -6.67937 -24.7335 4.94509 -6.38719 -64.2733 34.0085 28.6416 18.8868 11.7384 -25.6585 -13.5875 -0.656113 -0.0650994 -8.82781e-032 -6.36111e-015 -7.95139e-016 -7.95139e-016 -3.18056e-015 -0 6.68263 5.34478 18.3495 42.2585 -37.6616 53.3937 -35.3951 4.39308 86.1936 -27.0084 4.04617 -3.65695 3.57812e-015 6.36111e-015 -1.19271e-015 3.18055e-015 6.36111e-015 -1.98785e-015 -3.79617 0.00211831 -6.00565 
10.5986 95.2913 -10.7804 0.233568 0.0920229 11.5844 -0.578666 0.141416 1.2714 2.42424 -12.3406 4.19196 -0.507131 16.6928 -4.32344 -0.383589 -3.93333 -2.8538 0.63992 -10.1051 -0.336588 -10.1188 -3.91938 -7.65749 -0.0503192 13.6698 -1.19499 3.51973 -7.22138 -9.83281 -0.582217 -11.513 -0.0167027 -1.22123 0.269277 2.54418 -1.22133 0.269278 2.54416 -2.09496 -2.81051 -5.8439 -25.0447 5.64855 -6.35805 -63.0113 35.6727 26.5099 16.5378 10.4493 -23.281 -12.1599 -0.683893 0.271732 -1.59028e-015 -9.54166e-015 3.97569e-016 -1.59028e-015 -9.54167e-015 7.95139e-016 10.5742 6.43308 16.9899 39.0575 -34.1383 43.7667 -29.1572 2.44542 95.7017 -21.6322 3.30122 -3.02018 0 0 -0 0 0 -1.59028e-015 -2.98201 0.48035 -5.58187 
10.5684 95.2921 -10.7378 0.563301 -0.497136 10.7511 -0.516191 0.254495 1.00849 2.30972 -11.4836 4.2789 -0.616411 16.3381 -4.24363 -0.437394 -3.95929 -2.12878 0.660555 -10.0394 -0.132511 -10.3839 -3.85311 -7.44588 -0.165505 14.0789 -0.619623 3.62597 -7.37796 -9.47029 -0.697871 -11.5032 0.049911 -1.11635 0.499171 2.01806 -1.11581 0.49917 2.01809 -2.73779 -3.50963 -5.1982 -25.7639 6.55749 -6.24394 -61.1036 37.4856 23.9461 15.6158 10.1725 -21.5317 -10.6752 -0.482593 -0.171746 3.97569e-016 3.18055e-015 -3.97569e-016 3.97569e-016 9.54167e-015 -3.97569e-016 15.0871 7.9637 16.2346 34.3686 -29.3312 30.069 -21.8687 2.69329 104.217 -13.2019 2.50338 -3.0219 1.59028e-015 3.18055e-015 -6.36111e-015 1.59028e-015 6.36111e-015 -3.18055e-015 -2.15348 0.604138 -5.28965 
10.4106 95.298 -10.6115 0.703198 -1.00781 10.476 -0.52137 0.38236 0.876045 2.50632 -10.8691 4.56006 -0.723186 16.146 -4.18296 -0.513359 -4.03 -2.11349 0.652543 -9.97347 -0.0737035 -10.3287 -3.57664 -7.23046 -0.129232 14.2453 -0.341651 3.5222 -7.54267 -9.50316 -0.759844 -11.4867 0.0571762 -1.13969 0.75601 1.75421 -1.13969 0.756014 1.75422 -2.83885 -4.34391 -5.15947 -26.4912 7.47053 -6.19046 -59.5459 40.95 21.575 15.3135 8.61046 -20.5972 -8.4105 -0.29489 -0.275391 6.95746e-016 -6.36111e-015 -2.98177e-016 6.95746e-016 -6.36111e-015 -9.93923e-017 19.9043 9.80475 15.6539 31.1218 -22.4083 13.8381 -17.8671 3.6643 108.491 -4.9854 1.53084 -0.923233 -3.18055e-015 1.59028e-015 3.18055e-015 3.18055e-015 -3.18056e-015 -0 -1.54047 0.326039 -5.39073 
10.1716 95.2981 -10.3672 0.897954 -1.65981 10.6702 -0.619816 0.557638 0.773517 2.84664 -10.246 5.2284 -0.739544 16.1439 -4.26452 -0.672561 -4.06237 -2.78341 0.669217 -10.0264 -0.104504 -10.0216 -3.03797 -6.63999 -0.165268 14.4782 -0.346972 3.30518 -7.87819 -9.99019 -0.725365 -11.4692 -0.051126 -1.32711 1.10627 1.55383 -1.32711 1.10627 1.55384 -1.81566 -4.8607 -5.53731 -26.8447 8.18325 -7.31223 -58.8323 42.7224 19.4284 15.0932 6.89017 -20.6569 -5.14139 -0.0434564 -0.533412 7.95139e-016 -3.18055e-015 -0 -7.95139e-016 -3.18056e-015 -0 24.4795 11.5133 15.1827 31.3147 -14.4773 -0.902238 -14.5206 5.41594 105.826 0.449959 1.5228 -1.06577 -3.18055e-015 0 -3.18055e-015 -3.18055e-015 -2.38542e-015 -0 -1.96332 -0.0769133 -5.3916 
9.85553 95.2913 -10.1574 0.947293 -2.20455 10.669 -0.631549 0.674177 0.574403 3.31103 -9.76646 5.42456 -0.973062 16.2839 -3.78701 -0.835696 -4.1957 -3.18964 0.660825 -10.046 -0.162409 -9.58654 -2.7119 -5.27602 -0.0856113 14.7463 -0.448393 2.8236 -8.13823 -10.9074 -0.565949 -11.4732 -0.20002 -1.32789 1.34161 1.1585 -1.32871 1.34162 1.15842 -1.21607 -4.77552 -5.45027 -26.8297 8.48739 -8.75789 -57.7177 42.1465 17.1136 14.4814 6.21251 -21.6829 -1.40269 0.400151 -1.50793 1.59028e-015 3.18055e-015 -0 1.59028e-015 3.18056e-015 7.95139e-016 28.2094 12.4654 15.3371 35.1901 -7.79426 -10.1818 -5.10689 7.17933 95.5175 3.65007 1.12365 -9.9668 -3.18055e-015 -3.32964e-015 6.65929e-015 -3.18055e-015 -3.13086e-015 7.15625e-015 -2.44192 -0.376936 -5.06346 
9.71499 95.2813 -9.59984 0.643741 -3.56674 11.6529 -0.391899 0.886114 0.000329353 3.70263 -8.90874 4.95699 -0.819045 17.1352 -3.92694 -1.02486 -4.91289 -3.12908 0.642621 -9.99911 -0.157948 -9.02124 -0.664305 -7.66036 -0.613822 13.8028 1.24568 2.47187 -7.99525 -10.4109 -0.277184 -11.5512 -0.238907 -0.816231 1.77218 0.0102615 -0.81623 1.77218 0.0102688 -1.82665 -3.96074 -4.54732 -26.4827 8.18016 -9.66522 -57.0726 42.891 15.5577 14.1047 4.42856 -23.0138 0.147061 0.512881 -3.5616 1.59028e-015 3.18055e-015 -0 1.59028e-015 3.18056e-015 1.59028e-015 30.6552 12.0808 15.8106 40.6572 -3.15258 -13.5177 -11.8791 3.82586 80.6955 11.9906 -0.723752 -19.6918 4.41391e-031 -7.95139e-015 3.18055e-015 -0 -7.95139e-015 -0 -2.04583 -1.08365 -4.46976 
